<?xml version="1.0" encoding="UTF-8" standalone="no"?>
<!-- Created with Inkscape (http://www.inkscape.org/) -->

<svg
   width="660.98584mm"
   height="146.54396mm"
   viewBox="0 0 660.98584 146.54396"
   version="1.1"
   id="svg5"
   inkscape:version="1.1.2 (1:1.1+202202050950+0a00cf5339)"
   sodipodi:docname="einsatzsimulator-logo.svg"
   xmlns:inkscape="http://www.inkscape.org/namespaces/inkscape"
   xmlns:sodipodi="http://sodipodi.sourceforge.net/DTD/sodipodi-0.dtd"
   xmlns="http://www.w3.org/2000/svg"
   xmlns:svg="http://www.w3.org/2000/svg">
  <sodipodi:namedview
     id="namedview7"
     pagecolor="#ffffff"
     bordercolor="#666666"
     borderopacity="1.0"
     inkscape:pageshadow="2"
     inkscape:pageopacity="0.0"
     inkscape:pagecheckerboard="0"
     inkscape:document-units="mm"
     showgrid="false"
     showguides="true"
     inkscape:guide-bbox="true"
     lock-margins="true"
     fit-margin-top="10"
     fit-margin-left="10"
     fit-margin-right="10"
     fit-margin-bottom="10"
     inkscape:zoom="0.32026164"
     inkscape:cx="1331.7236"
     inkscape:cy="113.96932"
     inkscape:window-width="1896"
     inkscape:window-height="2096"
     inkscape:window-x="1944"
     inkscape:window-y="27"
     inkscape:window-maximized="0"
     inkscape:current-layer="layer1" />
  <defs
     id="defs2">
    <inkscape:path-effect
       effect="fillet_chamfer"
       id="path-effect663"
       is_visible="true"
       lpeversion="1"
       satellites_param="F,0,0,1,0,2.38125,0,1 @ F,0,0,1,0,2.38125,0,1 @ F,0,0,1,0,2.38125,0,1 @ F,0,0,1,0,2.38125,0,1 @ F,0,0,1,0,2.38125,0,1"
       unit="px"
       method="auto"
       mode="F"
       radius="9"
       chamfer_steps="1"
       flexible="false"
       use_knot_distance="true"
       apply_no_radius="true"
       apply_with_radius="true"
       only_selected="false"
       hide_knots="false" />
  </defs>
  <g
     inkscape:label="Layer 1"
     inkscape:groupmode="layer"
     id="layer1"
     transform="translate(-5.0820016,-5.3846487)">
    <g
       id="g59786"
       transform="translate(0,-2.773234)">
      <path
         id="rect53"
         style="opacity:1;fill:#ffff00;fill-opacity:1;fill-rule:nonzero;stroke:#000000;stroke-width:5.66929;stroke-linecap:round;stroke-linejoin:round;stroke-miterlimit:4;stroke-dasharray:none;stroke-dashoffset:0;stroke-opacity:1;paint-order:markers fill stroke"
         d="m 305.26562,71.462891 c -4.83059,-0.0082 -9.66534,1.836056 -13.37304,5.53125 L 65.388672,302.73438 c -7.415405,7.39038 -7.43531,19.3092 -0.04492,26.7246 L 204.69922,469.28711 c 16.74902,-39.30086 33.62023,-78.55215 50.4043,-117.83789 -1.61987,-1.20824 -3.18986,-2.48444 -4.69922,-3.82813 -23.58393,-20.04328 -33.33611,-54.2285 -24.92383,-83.86328 8.72841,-33.49585 40.96511,-58.8518 75.43555,-60.19726 6.40577,-0.2277 12.84767,0.15001 19.15234,1.33203 29.64968,5.09835 54.99067,28.21427 63.64258,56.89844 10.46169,32.40941 -2.41528,70.48902 -29.94922,90.36132 16.7201,39.34425 33.44005,78.68881 50.16016,118.03321 L 544.31445,330.26758 c 7.41541,-7.39039 7.43531,-19.30921 0.0449,-26.72461 L 318.61914,77.039062 c -3.69519,-3.707702 -8.52292,-5.568009 -13.35352,-5.576171 z"
         transform="scale(0.26458333)"
         sodipodi:nodetypes="scccccccccccccccs" />
      <path
         id="rect53-3"
         style="fill:#000080;stroke:#000000;stroke-width:1.5;stroke-linecap:round;stroke-linejoin:round;stroke-miterlimit:4;stroke-dasharray:none;paint-order:markers fill stroke"
         d="m 80.658641,57.533946 a 18.111647,18.111647 0 0 0 -18.111555,18.112073 18.111647,18.111647 0 0 0 9.573575,15.958689 c -7.159389,16.719302 -14.318369,33.438772 -21.477758,50.158132 -0.517684,1.20894 0.128712,2.18901 1.443839,2.18901 h 56.710228 c 1.31513,0 1.96364,-0.98104 1.4485,-2.19108 C 103.14636,125.08531 96.06563,108.40173 88.964594,91.727178 A 18.111647,18.111647 0 0 0 98.770198,75.646019 18.111647,18.111647 0 0 0 80.658641,57.533946 Z" />
      <path
         style="fill:#000000;fill-rule:evenodd;stroke:none;stroke-width:0.264583px;stroke-linecap:butt;stroke-linejoin:miter;stroke-opacity:1"
         d="m 63.560092,34.335585 h 34.23277 L 83.164893,19.484945 80.768194,18.907889 77.464419,19.81861 Z"
         id="path3566"
         sodipodi:nodetypes="cccccc" />
    </g>
    <g
       aria-label="Einsatzsimulator"
       id="text7433"
       style="font-size:73.9146px;line-height:125%;font-family:'Liberation Sans';-inkscape-font-specification:'Liberation Sans';letter-spacing:0px;word-spacing:0px;fill:#000000;stroke:#000000;stroke-width:1.15492px">
      <path
         d="M 168.24638,103.04845 V 77.769657 h 31.56154 V 76.291365 H 168.24638 V 53.230011 h 33.55723 v -1.478292 h -35.03552 v 52.775021 h 35.33118 v -1.47829 z"
         style="font-weight:100;font-family:'Helvetica Neue';-inkscape-font-specification:'Helvetica Neue Thin';fill:#000000"
         id="path831" />
      <path
         d="m 208.01234,59.217093 v -7.465374 h -1.47829 v 7.465374 z m 0,45.309647 V 66.534638 h -1.47829 v 37.992102 z"
         style="font-weight:100;font-family:'Helvetica Neue';-inkscape-font-specification:'Helvetica Neue Thin';fill:#000000"
         id="path833" />
      <path
         d="m 216.14289,66.534638 v 37.992102 h 1.47829 V 83.017593 q 0,-3.178327 0.88697,-6.060996 0.88698,-2.88267 2.58701,-5.026193 1.77395,-2.217438 4.36097,-3.473986 2.58701,-1.330463 5.98708,-1.330463 2.43918,0 4.5827,0.739146 2.21744,0.665232 3.84356,2.217438 1.70004,1.478292 2.66093,3.843559 0.96089,2.291353 0.96089,5.617509 v 24.983133 h 1.47829 V 79.321864 q 0,-3.326157 -1.03481,-5.839254 -0.96089,-2.58701 -2.80875,-4.287046 -1.77395,-1.77395 -4.28705,-2.660926 -2.43918,-0.886975 -5.39576,-0.886975 -2.80876,0 -5.10011,0.813061 -2.29135,0.739146 -4.0653,2.143523 -1.70004,1.404377 -2.88267,3.252242 -1.10872,1.847865 -1.62612,4.065303 h -0.14783 v -9.387154 z"
         style="font-weight:100;font-family:'Helvetica Neue';-inkscape-font-specification:'Helvetica Neue Thin';fill:#000000"
         id="path835" />
      <path
         d="m 277.86144,77.769657 h 1.47829 q 0,-6.356655 -3.69573,-9.239324 -3.69573,-2.88267 -10.05239,-2.88267 -3.5479,0 -5.98708,0.886975 -2.43918,0.886976 -3.99139,2.291353 -1.5522,1.404377 -2.21743,3.104413 -0.66524,1.700036 -0.66524,3.252242 0,3.104413 1.10872,4.952278 1.10872,1.847865 3.47399,2.882669 1.62612,0.739146 3.69573,1.330463 2.06961,0.591317 4.80445,1.256548 2.43918,0.591317 4.80445,1.182634 2.36526,0.591317 4.13921,1.626121 1.84787,0.96089 2.95659,2.513096 1.18263,1.552207 1.18263,4.065303 0,2.439182 -1.18263,4.139217 -1.10872,1.700035 -2.88267,2.808755 -1.77395,1.0348 -3.99139,1.55221 -2.14352,0.44348 -4.21313,0.44348 -6.72623,0 -10.34805,-2.95658 -3.5479,-3.030498 -3.5479,-9.461068 h -1.47829 q 0,7.169716 3.84356,10.495868 3.91747,3.32616 11.53068,3.32616 2.43918,0 4.87836,-0.59132 2.5131,-0.5174 4.43488,-1.77395 1.99569,-1.25654 3.17833,-3.252238 1.25654,-1.995694 1.25654,-4.878363 0,-2.73484 -1.10872,-4.434876 -1.0348,-1.700036 -2.80875,-2.808755 -1.70004,-1.108719 -3.91747,-1.700035 -2.14353,-0.665232 -4.36097,-1.256548 -3.10441,-0.813061 -5.46968,-1.404378 -2.29135,-0.591317 -4.28704,-1.404377 -1.92178,-0.813061 -3.10442,-2.291353 -1.10871,-1.552206 -1.10871,-4.360961 0,-0.517402 0.29565,-1.847865 0.29566,-1.330462 1.40438,-2.660925 1.10872,-1.404378 3.40007,-2.439182 2.29136,-1.108719 6.28274,-1.108719 2.73484,0 4.95228,0.591317 2.29135,0.591317 3.91748,1.921779 1.62612,1.256549 2.51309,3.252243 0.88698,1.995694 0.88698,4.878363 z"
         style="font-weight:100;font-family:'Helvetica Neue';-inkscape-font-specification:'Helvetica Neue Thin';fill:#000000"
         id="path837" />
      <path
         d="m 287.24854,78.287059 h 1.47829 q 0.36957,-5.321851 3.69573,-8.20452 3.32616,-2.956584 9.31324,-2.956584 3.76964,0 5.98708,1.034805 2.21744,0.960889 3.32616,2.513096 1.18263,1.552206 1.47829,3.400071 0.29566,1.847865 0.29566,3.547901 0,2.143523 -0.88698,3.326157 -0.81306,1.108719 -2.66092,1.700035 -1.77395,0.517403 -4.58271,0.739146 -2.80875,0.14783 -6.72623,0.369573 -2.36526,0.14783 -4.73053,0.665232 -2.36527,0.443487 -4.21313,1.700035 -1.84787,1.182634 -3.0305,3.326157 -1.10872,2.143524 -1.10872,5.691424 0,5.100103 3.47399,7.687123 3.47398,2.51309 9.23932,2.51309 2.95658,0 5.46968,-0.81306 2.5131,-0.73914 4.43488,-2.06961 1.99569,-1.33046 3.25224,-3.030496 1.33046,-1.700036 1.92178,-3.547901 h 0.14783 v 4.952277 q 0,2.14352 1.18263,2.95659 1.25655,0.73914 2.88267,0.73914 h 2.21744 v -1.47829 q -0.73915,0.0739 -1.62612,0.14783 -0.81306,0 -1.55221,-0.14783 -0.73915,-0.22174 -1.18263,-0.73915 -0.44349,-0.5174 -0.44349,-1.62612 V 76.513109 q -0.0739,-3.104413 -1.10872,-5.174022 -1.0348,-2.069609 -2.73484,-3.326157 -1.70004,-1.330462 -3.99139,-1.847865 -2.21744,-0.517402 -4.73053,-0.517402 -3.5479,0 -6.20883,0.96089 -2.58701,0.96089 -4.43487,2.660925 -1.77395,1.700036 -2.73484,4.065303 -0.96089,2.291353 -1.10872,4.952278 z m 25.57445,3.917474 v 7.021887 q 0,2.808754 -1.03481,5.46968 -0.96089,2.660925 -2.95658,4.730534 -1.92178,1.995696 -4.80445,3.252246 -2.88267,1.25654 -6.5784,1.25654 -3.10441,0 -5.24794,-0.73914 -2.0696,-0.81306 -3.40007,-1.9957 -1.33046,-1.256544 -1.92178,-2.80875 -0.5174,-1.626122 -0.5174,-3.252243 0,-3.030498 0.96089,-4.878363 0.96089,-1.92178 2.58701,-2.956584 1.62612,-1.108719 3.69573,-1.478292 2.14353,-0.443487 4.36096,-0.591317 2.21744,-0.147829 4.50879,-0.221743 2.36527,-0.07391 4.36097,-0.369573 1.99569,-0.295659 3.5479,-0.813061 1.5522,-0.591317 2.29135,-1.626121 z"
         style="font-weight:100;font-family:'Helvetica Neue';-inkscape-font-specification:'Helvetica Neue Thin';fill:#000000"
         id="path839" />
      <path
         d="m 326.9406,68.01293 h 8.5741 v -1.478292 h -8.5741 V 54.560474 h -1.47829 v 11.974164 h -6.94797 v 1.478292 h 6.94797 v 29.41801 q 0,4.0653 1.77395,5.61751 1.84787,1.47829 4.43488,1.47829 1.70003,0 2.29135,-0.0739 0.66523,-0.0739 1.33046,-0.14783 v -1.47829 q -0.36957,0.14782 -1.25655,0.22174 -0.88697,0 -1.99569,0 -0.88697,0 -1.77395,-0.0739 -0.88698,-0.14782 -1.62612,-0.73914 -0.73915,-0.59132 -1.25655,-1.77395 -0.44349,-1.182635 -0.44349,-3.326159 z"
         style="font-weight:100;font-family:'Helvetica Neue';-inkscape-font-specification:'Helvetica Neue Thin';fill:#000000"
         id="path841" />
      <path
         d="m 366.33702,103.04845 h -27.79189 l 26.60926,-34.665947 v -1.847865 h -26.16577 v 1.478292 h 24.61356 l -26.60925,34.66595 v 1.84786 h 29.34409 z"
         style="font-weight:100;font-family:'Helvetica Neue';-inkscape-font-specification:'Helvetica Neue Thin';fill:#000000"
         id="path843" />
      <path
         d="m 393.98106,77.547913 h 4.65662 q -0.14783,-3.104413 -1.25655,-5.395765 -1.10872,-2.291353 -3.0305,-3.843559 -1.84786,-1.552207 -4.36096,-2.291353 -2.43918,-0.739146 -5.32185,-0.739146 -2.5131,0 -5.10011,0.591317 -2.51309,0.591317 -4.5827,1.847865 -2.06961,1.256548 -3.40007,3.326157 -1.25655,2.069608 -1.25655,4.952278 0,2.439181 0.81306,4.139217 0.81306,1.626121 2.21744,2.808755 1.47829,1.108719 3.40007,1.921779 1.92178,0.739146 4.21313,1.330463 l 5.98708,1.330463 q 1.55221,0.369573 3.0305,0.886975 1.55221,0.517402 2.73484,1.330463 1.18264,0.739146 1.84787,1.921779 0.73914,1.108719 0.73914,2.808755 0,1.995694 -1.0348,3.400071 -0.96089,1.330463 -2.5131,2.217443 -1.5522,0.88697 -3.40007,1.25654 -1.77395,0.36958 -3.47399,0.36958 -4.65662,0 -7.83494,-2.365271 -3.10442,-2.439181 -3.40007,-7.169716 h -4.65662 q 0.59131,7.021887 4.73053,10.200217 4.21313,3.17833 10.93936,3.17833 2.66093,0 5.39577,-0.59132 2.73484,-0.59132 4.87836,-1.92178 2.21744,-1.40438 3.62181,-3.547902 1.40438,-2.217437 1.40438,-5.32185 0,-2.513097 -0.96089,-4.360962 -0.96089,-1.847865 -2.51309,-3.104413 -1.4783,-1.256548 -3.47399,-1.995694 -1.92178,-0.81306 -3.91747,-1.108719 l -6.20883,-1.404377 q -1.18263,-0.295659 -2.58701,-0.739146 -1.40438,-0.517402 -2.58701,-1.256548 -1.18264,-0.739146 -1.9957,-1.773951 -0.73914,-1.108719 -0.73914,-2.660925 0,-1.847865 0.81306,-3.104413 0.81306,-1.256548 2.14352,-1.995694 1.33046,-0.813061 2.88267,-1.108719 1.62612,-0.369573 3.17833,-0.369573 1.99569,0 3.76964,0.517402 1.77395,0.443488 3.10442,1.478292 1.40437,1.034804 2.21743,2.660925 0.81307,1.552207 0.88698,3.69573 z"
         style="font-weight:300;font-family:'Helvetica Neue';-inkscape-font-specification:'Helvetica Neue Light';fill:#000000;stroke:none"
         id="path845" />
      <path
         d="m 406.76821,51.751719 v 7.465374 h 4.65661 v -7.465374 z m 0,14.63509 v 38.139931 h 4.65661 V 66.386809 Z"
         style="font-weight:300;font-family:'Helvetica Neue';-inkscape-font-specification:'Helvetica Neue Light';fill:#000000;stroke:none"
         id="path847" />
      <path
         d="m 420.36845,66.386809 v 38.139931 h 4.65662 V 83.239337 q 0,-3.030498 0.66524,-5.543595 0.66523,-2.58701 1.99569,-4.434875 1.40438,-1.92178 3.5479,-2.956584 2.21744,-1.108719 5.17402,-1.108719 2.21744,0 3.76965,0.739146 1.5522,0.739146 2.43918,2.069609 0.96089,1.256548 1.33046,3.030498 0.44349,1.700036 0.44349,3.621815 v 25.870108 h 4.65662 V 82.943679 q 0,-2.660926 0.44349,-5.100107 0.5174,-2.513097 1.70003,-4.434876 1.18263,-1.92178 3.17833,-3.030499 1.99569,-1.182633 5.02619,-1.182633 5.02619,0 7.02189,2.513096 1.99569,2.439182 1.99569,7.169716 v 25.648364 h 4.65662 V 78.656632 q 0,-13.378542 -12.63939,-13.378542 -3.76965,0 -7.09581,1.847865 -3.32615,1.847865 -5.02619,5.61751 -1.0348,-3.769645 -4.13922,-5.61751 -3.03049,-1.847865 -6.80014,-1.847865 -4.65662,0 -7.68712,1.995694 -2.95658,1.995694 -4.80445,5.543595 h -0.22174 v -6.43057 z"
         style="font-weight:300;font-family:'Helvetica Neue';-inkscape-font-specification:'Helvetica Neue Light';fill:#000000;stroke:none"
         id="path849" />
      <path
         d="M 512.83548,104.52674 V 66.386809 h -4.65662 v 20.030856 q 0,2.882669 -0.66523,5.691424 -0.66523,2.73484 -2.06961,4.878363 -1.40438,2.143523 -3.5479,3.473988 -2.14352,1.25655 -5.17402,1.25655 -5.5436,0 -7.83495,-2.660929 -2.21744,-2.660926 -2.36527,-7.834947 V 66.386809 h -4.65662 v 24.76139 q 0,3.400071 0.73915,6.060997 0.73915,2.660925 2.29135,4.508794 1.62612,1.84786 4.13922,2.80875 2.58701,1.03481 6.20883,1.03481 4.28704,0 7.76103,-1.9957 3.5479,-2.06961 5.39576,-5.913166 h 0.14783 v 6.874056 z"
         style="font-weight:300;font-family:'Helvetica Neue';-inkscape-font-specification:'Helvetica Neue Light';fill:#000000;stroke:none"
         id="path851" />
      <path
         d="m 521.70514,51.751719 v 52.775021 h 4.65662 V 51.751719 Z"
         style="font-weight:300;font-family:'Helvetica Neue';-inkscape-font-specification:'Helvetica Neue Light';fill:#000000;stroke:none"
         id="path853" />
      <path
         d="m 534.8619,78.065315 h 4.65662 q 0.14783,-4.656619 2.95659,-6.726228 2.80875,-2.143523 7.24363,-2.143523 2.0696,0 3.84356,0.369573 1.84786,0.295658 3.17832,1.182633 1.40438,0.886976 2.14353,2.439182 0.81306,1.478292 0.81306,3.843559 0,1.552207 -0.44349,2.513096 -0.36957,0.96089 -1.10872,1.552207 -0.73915,0.517402 -1.84786,0.739146 -1.10872,0.221744 -2.58702,0.369573 -3.76964,0.443487 -7.46537,0.96089 -3.62182,0.443487 -6.5784,1.626121 -2.88267,1.182633 -4.65662,3.473986 -1.77395,2.217438 -1.77395,6.208826 0,2.882669 0.96089,5.026192 1.03481,2.069612 2.73484,3.473982 1.77395,1.33047 4.0653,1.92178 2.36527,0.66524 5.0262,0.66524 2.80875,0 4.80444,-0.51741 2.06961,-0.5174 3.62182,-1.47829 1.62612,-0.96089 2.88267,-2.36527 1.33046,-1.478288 2.58701,-3.326153 h 0.14783 q 0,1.478292 0.14783,2.734843 0.22174,1.18263 0.81306,2.06961 0.59132,0.88697 1.62612,1.40437 1.10872,0.44349 2.88267,0.44349 0.96089,0 1.55221,-0.0739 0.66523,-0.0739 1.47829,-0.22175 v -3.91747 q -0.66523,0.29566 -1.47829,0.29566 -2.73484,0 -2.73484,-2.808757 v -20.2526 q 0,-3.843559 -1.25655,-6.208826 -1.25655,-2.439182 -3.25224,-3.769644 -1.9957,-1.330463 -4.50879,-1.773951 -2.5131,-0.517402 -5.0262,-0.517402 -3.32615,0 -6.06099,0.739146 -2.73484,0.739146 -4.80445,2.291353 -1.9957,1.552206 -3.17833,3.991388 -1.18263,2.439182 -1.40438,5.765338 z m 24.83531,5.61751 v 6.060997 q 0,2.808754 -1.10872,5.026192 -1.03481,2.217438 -2.88267,3.769645 -1.77395,1.552211 -4.21313,2.365271 -2.43919,0.81306 -5.10011,0.81306 -1.62612,0 -3.17833,-0.51741 -1.5522,-0.5174 -2.73484,-1.478288 -1.18263,-1.034804 -1.92178,-2.365267 -0.66523,-1.404377 -0.66523,-3.178327 0,-2.808755 1.62612,-4.287047 1.70004,-1.552207 4.28705,-2.365267 2.58701,-0.813061 5.69142,-1.182634 3.17833,-0.443487 6.13491,-0.960889 0.96089,-0.14783 2.21744,-0.517403 1.25655,-0.369573 1.70004,-1.182633 z"
         style="font-weight:300;font-family:'Helvetica Neue';-inkscape-font-specification:'Helvetica Neue Light';fill:#000000;stroke:none"
         id="path855" />
      <path
         d="M 581.05845,66.386809 V 54.930047 h -4.65662 v 11.456762 h -6.65231 v 3.917474 h 6.65231 v 26.091852 q -0.0739,4.878365 1.77395,6.726225 1.84787,1.77395 6.50449,1.77395 1.0348,0 2.06961,-0.0739 1.0348,-0.0739 2.0696,-0.0739 v -3.91747 q -1.99569,0.22174 -3.99138,0.22174 -2.5131,-0.14782 -3.17833,-1.404372 -0.59132,-1.330463 -0.59132,-3.621816 V 70.304283 h 7.76103 v -3.917474 z"
         style="font-weight:300;font-family:'Helvetica Neue';-inkscape-font-specification:'Helvetica Neue Light';fill:#000000;stroke:none"
         id="path857" />
      <path
         d="m 611.65907,69.195564 q 3.32615,0 5.83925,1.404377 2.5131,1.404378 4.13922,3.69573 1.70003,2.291353 2.51309,5.247936 0.88698,2.88267 0.88698,5.913168 0,3.030499 -0.88698,5.987082 -0.81306,2.88267 -2.51309,5.174022 -1.62612,2.291353 -4.13922,3.695731 -2.5131,1.40438 -5.83925,1.40438 -3.32616,0 -5.83926,-1.40438 -2.51309,-1.404378 -4.21313,-3.695731 -1.62612,-2.291352 -2.51309,-5.174022 -0.81306,-2.956583 -0.81306,-5.987082 0,-3.030498 0.81306,-5.913168 0.88697,-2.956583 2.51309,-5.247936 1.70004,-2.291352 4.21313,-3.69573 2.5131,-1.404377 5.83926,-1.404377 z m 0,-3.917474 q -4.36096,0 -7.76104,1.626121 -3.32615,1.626122 -5.6175,4.360962 -2.29136,2.73484 -3.47399,6.430569 -1.18263,3.621816 -1.18263,7.761033 0,4.139218 1.18263,7.834947 1.18263,3.621816 3.47399,6.356656 2.29135,2.734842 5.6175,4.360962 3.40008,1.55221 7.76104,1.55221 4.36096,0 7.68712,-1.55221 3.40007,-1.62612 5.69142,-4.360962 2.29135,-2.73484 3.47399,-6.356656 1.18263,-3.695729 1.18263,-7.834947 0,-4.139217 -1.18263,-7.761033 -1.18264,-3.695729 -3.47399,-6.430569 -2.29135,-2.73484 -5.69142,-4.360962 -3.32616,-1.626121 -7.68712,-1.626121 z"
         style="font-weight:300;font-family:'Helvetica Neue';-inkscape-font-specification:'Helvetica Neue Light';fill:#000000;stroke:none"
         id="path859" />
      <path
         d="m 636.64218,66.386809 v 38.139931 h 4.65662 V 84.200227 q 0,-3.030498 1.03481,-5.543595 1.0348,-2.587011 2.88266,-4.434876 1.92178,-1.847864 4.5088,-2.808754 2.58701,-1.034805 5.76533,-0.886975 v -4.65662 q -5.17402,-0.221744 -8.94366,2.291353 -3.69573,2.513096 -5.46968,7.169715 h -0.14783 v -8.943666 z"
         style="font-weight:300;font-family:'Helvetica Neue';-inkscape-font-specification:'Helvetica Neue Light';fill:#000000;stroke:none"
         id="path861" />
    </g>
    <g
       aria-label="für Führungskräfte des Bevölkerungsschutzes"
       id="text63676"
       style="font-size:22.5778px;line-height:125%;font-family:'Liberation Sans';-inkscape-font-specification:'Liberation Sans';letter-spacing:1.85738px;word-spacing:0px;fill:none;stroke:#000000;stroke-width:0.264583px">
      <path
         d="m 166.32292,126.39826 h 1.96427 v 11.15344 h 0.45156 v -11.15344 h 2.50613 v -0.45155 h -2.50613 v -2.41583 q 0,-0.85795 0.31609,-1.24178 0.33866,-0.4064 1.4224,-0.4064 0.24835,0 0.49671,0.0226 0.24835,0.0226 0.56444,0.0677 v -0.45155 q -0.18062,-0.0226 -0.42897,-0.0452 -0.22578,-0.0451 -0.54187,-0.0451 -0.36125,0 -0.76765,0.0451 -0.4064,0.0452 -0.74506,0.24836 -0.33867,0.18062 -0.56445,0.56444 -0.2032,0.38383 -0.2032,1.08374 v 2.57387 h -1.96427 z"
         style="font-weight:100;font-family:'Helvetica Neue';-inkscape-font-specification:'Helvetica Neue Thin';fill:#000000;stroke:none"
         id="path864" />
      <path
         d="m 179.96588,124.72751 h 0.45156 v -1.82881 h -0.45156 z m -3.52214,0 h 0.45156 v -1.82881 h -0.45156 z m 6.38952,12.82419 v -11.60499 h -0.45155 v 6.57014 q 0,0.97084 -0.27094,1.85138 -0.27093,0.88053 -0.8128,1.55787 -0.51929,0.65475 -1.30951,1.06115 -0.79022,0.38382 -1.8288,0.38382 -0.74507,0 -1.4224,-0.2032 -0.65476,-0.22577 -1.17405,-0.67733 -0.49671,-0.47413 -0.79022,-1.17405 -0.29351,-0.72249 -0.29351,-1.73849 v -7.63129 h -0.45156 v 7.69903 q 0,1.016 0.29351,1.80622 0.31609,0.76765 0.85796,1.30951 0.56444,0.51929 1.30951,0.79023 0.76764,0.24835 1.67076,0.24835 1.71591,0 2.77707,-0.88053 1.08373,-0.88054 1.39982,-2.2352 h 0.0452 v 2.86738 z"
         style="font-weight:100;font-family:'Helvetica Neue';-inkscape-font-specification:'Helvetica Neue Thin';fill:#000000;stroke:none"
         id="path866" />
      <path
         d="m 187.62571,137.5517 v -6.57014 q 0,-0.94827 0.27094,-1.85138 0.27093,-0.90311 0.83538,-1.58045 0.56444,-0.69991 1.4224,-1.08373 0.88053,-0.4064 2.07716,-0.33867 v -0.45156 q -1.03858,-0.0226 -1.82881,0.22578 -0.76764,0.24836 -1.33209,0.67734 -0.56444,0.42897 -0.90311,1.016 -0.33867,0.56444 -0.49671,1.2192 h -0.0452 v -2.86738 h -0.45155 v 11.60499 z"
         style="font-weight:100;font-family:'Helvetica Neue';-inkscape-font-specification:'Helvetica Neue Thin';fill:#000000;stroke:none"
         id="path868" />
      <path
         d="m 203.44215,128.92698 v -7.04428 h 9.48267 v -0.45155 h -9.93423 v 16.12055 h 0.45156 v -8.17317 h 8.57956 v -0.45155 z"
         style="font-weight:100;font-family:'Helvetica Neue';-inkscape-font-specification:'Helvetica Neue Thin';fill:#000000;stroke:none"
         id="path870" />
      <path
         d="m 221.66841,124.72751 h 0.45155 v -1.82881 h -0.45155 z m -3.52214,0 h 0.45156 v -1.82881 h -0.45156 z m 6.38952,12.82419 v -11.60499 h -0.45156 v 6.57014 q 0,0.97084 -0.27093,1.85138 -0.27094,0.88053 -0.8128,1.55787 -0.51929,0.65475 -1.30952,1.06115 -0.79022,0.38382 -1.8288,0.38382 -0.74506,0 -1.4224,-0.2032 -0.65475,-0.22577 -1.17404,-0.67733 -0.49672,-0.47413 -0.79023,-1.17405 Q 216.182,134.594 216.182,133.578 v -7.63129 h -0.45155 v 7.69903 q 0,1.016 0.29351,1.80622 0.31609,0.76765 0.85795,1.30951 0.56445,0.51929 1.30952,0.79023 0.76764,0.24835 1.67075,0.24835 1.71592,0 2.77707,-0.88053 1.08374,-0.88054 1.39983,-2.2352 h 0.0451 v 2.86738 z"
         style="font-weight:100;font-family:'Helvetica Neue';-inkscape-font-specification:'Helvetica Neue Thin';fill:#000000;stroke:none"
         id="path872" />
      <path
         d="m 228.87669,121.43115 v 16.12055 h 0.45155 v -6.57014 q 0,-0.97085 0.27094,-1.85138 0.27093,-0.88054 0.79022,-1.53529 0.54187,-0.67734 1.33209,-1.06116 0.79022,-0.4064 1.8288,-0.4064 0.74507,0 1.39982,0.22578 0.67734,0.2032 1.17405,0.67733 0.51929,0.45156 0.8128,1.17405 0.29351,0.69991 0.29351,1.71591 v 7.6313 h 0.45156 v -7.69903 q 0,-1.016 -0.31609,-1.78365 -0.29351,-0.79022 -0.85796,-1.30951 -0.54186,-0.54187 -1.30951,-0.8128 -0.74507,-0.27094 -1.64818,-0.27094 -0.85796,0 -1.55787,0.24836 -0.69991,0.22578 -1.24178,0.65476 -0.51929,0.42897 -0.88053,0.99342 -0.33867,0.56444 -0.49671,1.24178 h -0.0452 v -7.38294 z"
         style="font-weight:100;font-family:'Helvetica Neue';-inkscape-font-specification:'Helvetica Neue Thin';fill:#000000;stroke:none"
         id="path874" />
      <path
         d="m 242.47448,137.5517 v -6.57014 q 0,-0.94827 0.27093,-1.85138 0.27094,-0.90311 0.83538,-1.58045 0.56445,-0.69991 1.4224,-1.08373 0.88054,-0.4064 2.07716,-0.33867 v -0.45156 q -1.03858,-0.0226 -1.8288,0.22578 -0.76765,0.24836 -1.33209,0.67734 -0.56445,0.42897 -0.90311,1.016 -0.33867,0.56444 -0.49672,1.2192 h -0.0452 v -2.86738 h -0.45156 v 11.60499 z"
         style="font-weight:100;font-family:'Helvetica Neue';-inkscape-font-specification:'Helvetica Neue Thin';fill:#000000;stroke:none"
         id="path876" />
      <path
         d="m 258.53327,137.5517 v -11.60499 h -0.45156 v 6.57014 q 0,0.97084 -0.27093,1.85138 -0.27094,0.88053 -0.8128,1.55787 -0.51929,0.65475 -1.30952,1.06115 -0.79022,0.38382 -1.8288,0.38382 -0.74507,0 -1.4224,-0.2032 -0.65476,-0.22577 -1.17405,-0.67733 -0.49671,-0.47413 -0.79022,-1.17405 -0.29351,-0.72249 -0.29351,-1.73849 v -7.63129 h -0.45156 v 7.69903 q 0,1.016 0.29352,1.80622 0.31608,0.76765 0.85795,1.30951 0.56445,0.51929 1.30951,0.79023 0.76765,0.24835 1.67076,0.24835 1.71591,0 2.77707,-0.88053 1.08374,-0.88054 1.39982,-2.2352 h 0.0452 v 2.86738 z"
         style="font-weight:100;font-family:'Helvetica Neue';-inkscape-font-specification:'Helvetica Neue Thin';fill:#000000;stroke:none"
         id="path878" />
      <path
         d="m 262.87416,125.94671 v 11.60499 h 0.45156 v -6.57014 q 0,-0.97085 0.27093,-1.85138 0.27094,-0.88054 0.79023,-1.53529 0.54186,-0.67734 1.33209,-1.06116 0.79022,-0.4064 1.8288,-0.4064 0.74507,0 1.39982,0.22578 0.67734,0.2032 1.17405,0.67733 0.51929,0.45156 0.8128,1.17405 0.29351,0.69991 0.29351,1.71591 v 7.6313 h 0.45156 v -7.69903 q 0,-1.016 -0.31609,-1.78365 -0.29351,-0.79022 -0.85796,-1.30951 -0.54187,-0.54187 -1.30951,-0.8128 -0.74507,-0.27094 -1.64818,-0.27094 -0.85796,0 -1.55787,0.24836 -0.69991,0.22578 -1.24178,0.65476 -0.51929,0.42897 -0.88053,0.99342 -0.33867,0.56444 -0.49671,1.24178 h -0.0452 v -2.86738 z"
         style="font-weight:100;font-family:'Helvetica Neue';-inkscape-font-specification:'Helvetica Neue Thin';fill:#000000;stroke:none"
         id="path880" />
      <path
         d="m 284.84832,133.66832 v 3.49955 q 0,2.16747 -1.15146,3.1609 -1.12889,1.016 -3.25121,1.016 -0.76764,0 -1.49013,-0.18063 -0.69991,-0.18062 -1.24178,-0.56444 -0.54187,-0.38382 -0.88053,-0.99342 -0.31609,-0.6096 -0.33867,-1.46756 h -0.45156 q 0.0226,0.99342 0.38382,1.67076 0.36125,0.69991 0.97085,1.12889 0.6096,0.45155 1.39982,0.65475 0.79023,0.2032 1.67076,0.2032 2.30294,0 3.56729,-1.12889 1.26436,-1.10631 1.26436,-3.49956 v -11.22116 h -0.45156 v 3.09316 h -0.0451 q -0.18062,-0.72249 -0.58702,-1.33209 -0.38383,-0.6096 -0.97085,-1.06116 -0.56444,-0.45156 -1.28693,-0.69991 -0.72249,-0.27094 -1.55787,-0.27094 -1.2192,0 -2.16747,0.45156 -0.92569,0.45156 -1.55787,1.24178 -0.63218,0.76764 -0.94827,1.80622 -0.31609,1.016 -0.31609,2.19005 0,1.10631 0.29352,2.12231 0.31608,1.016 0.90311,1.78365 0.6096,0.74507 1.51271,1.19662 0.90311,0.45156 2.12231,0.45156 0.74507,0 1.46756,-0.2032 0.74507,-0.22578 1.35467,-0.63218 0.63218,-0.42898 1.08373,-1.03858 0.47414,-0.6096 0.65476,-1.37724 z m -0.0226,-2.30294 q 0,1.03858 -0.31609,1.98685 -0.29351,0.92569 -0.88054,1.6256 -0.56444,0.67733 -1.4224,1.08373 -0.85795,0.4064 -1.98684,0.4064 -1.06116,0 -1.87396,-0.38382 -0.8128,-0.4064 -1.37725,-1.08373 -0.54187,-0.69992 -0.83538,-1.62561 -0.27093,-0.92569 -0.27093,-2.00942 0,-1.06116 0.27093,-2.00942 0.29351,-0.94827 0.85796,-1.67076 0.58702,-0.72249 1.4224,-1.12889 0.85796,-0.42898 1.98685,-0.42898 1.08373,0 1.91911,0.45156 0.83538,0.42897 1.37725,1.17404 0.56444,0.72249 0.83538,1.67076 0.29351,0.94827 0.29351,1.94169 z"
         style="font-weight:100;font-family:'Helvetica Neue';-inkscape-font-specification:'Helvetica Neue Thin';fill:#000000;stroke:none"
         id="path882" />
      <path
         d="m 297.1592,129.37853 h 0.45156 q 0,-1.94169 -1.12889,-2.82222 -1.12889,-0.88054 -3.07058,-0.88054 -1.08374,0 -1.82881,0.27094 -0.74506,0.27093 -1.2192,0.69991 -0.47413,0.42898 -0.67733,0.94827 -0.2032,0.51929 -0.2032,0.99342 0,0.94827 0.33867,1.51271 0.33866,0.56445 1.06115,0.88054 0.49671,0.22577 1.12889,0.4064 0.63218,0.18062 1.46756,0.38382 0.74507,0.18062 1.46756,0.36124 0.72249,0.18063 1.26435,0.49672 0.56445,0.29351 0.90312,0.76764 0.36124,0.47414 0.36124,1.24178 0,0.74507 -0.36124,1.26436 -0.33867,0.51929 -0.88054,0.85795 -0.54187,0.31609 -1.2192,0.47414 -0.65476,0.13546 -1.28693,0.13546 -2.05458,0 -3.1609,-0.90311 -1.08373,-0.92569 -1.08373,-2.88996 h -0.45156 q 0,2.19005 1.17405,3.20605 1.19662,1.016 3.52214,1.016 0.74506,0 1.49013,-0.18062 0.76765,-0.15804 1.35467,-0.54187 0.6096,-0.38382 0.97084,-0.99342 0.38383,-0.6096 0.38383,-1.49014 0,-0.83537 -0.33867,-1.35466 -0.31609,-0.51929 -0.85796,-0.85796 -0.51929,-0.33867 -1.19662,-0.51929 -0.65476,-0.2032 -1.33209,-0.38382 -0.94827,-0.24836 -1.67076,-0.42898 -0.69991,-0.18062 -1.30951,-0.42898 -0.58702,-0.24835 -0.94827,-0.69991 -0.33866,-0.47413 -0.33866,-1.33209 0,-0.15804 0.0903,-0.56445 0.0903,-0.4064 0.42897,-0.8128 0.33867,-0.42897 1.03858,-0.74506 0.69992,-0.33867 1.91912,-0.33867 0.83537,0 1.51271,0.18062 0.69991,0.18062 1.19662,0.58702 0.49671,0.38383 0.76765,0.99343 0.27093,0.6096 0.27093,1.49013 z"
         style="font-weight:100;font-family:'Helvetica Neue';-inkscape-font-specification:'Helvetica Neue Thin';fill:#000000;stroke:none"
         id="path884" />
      <path
         d="m 302.35808,133.1716 3.00285,-2.48355 5.44125,6.86365 h 0.6096 l -5.71218,-7.17974 5.32836,-4.42525 h -0.65476 l -8.01512,6.66045 v -11.17601 h -0.45155 v 16.12055 h 0.45155 z"
         style="font-weight:100;font-family:'Helvetica Neue';-inkscape-font-specification:'Helvetica Neue Thin';fill:#000000;stroke:none"
         id="path886" />
      <path
         d="m 314.23997,137.5517 v -6.57014 q 0,-0.94827 0.27093,-1.85138 0.27093,-0.90311 0.83538,-1.58045 0.56444,-0.69991 1.4224,-1.08373 0.88053,-0.4064 2.07716,-0.33867 v -0.45156 q -1.03858,-0.0226 -1.8288,0.22578 -0.76765,0.24836 -1.33209,0.67734 -0.56445,0.42897 -0.90312,1.016 -0.33866,0.56444 -0.49671,1.2192 h -0.0451 v -2.86738 h -0.45156 v 11.60499 z"
         style="font-weight:100;font-family:'Helvetica Neue';-inkscape-font-specification:'Helvetica Neue Thin';fill:#000000;stroke:none"
         id="path888" />
      <path
         d="m 327.22817,124.72751 h 0.45156 v -1.82881 h -0.45156 z m -3.52213,0 h 0.45155 v -1.82881 h -0.45155 z m -2.23521,4.80907 h 0.45156 q 0.11289,-1.6256 1.12889,-2.50614 1.016,-0.90311 2.8448,-0.90311 1.15147,0 1.8288,0.31609 0.67734,0.29351 1.01601,0.76764 0.36124,0.47414 0.45155,1.03858 0.0903,0.56445 0.0903,1.08374 0,0.65475 -0.27093,1.016 -0.24836,0.33867 -0.8128,0.51929 -0.54187,0.15804 -1.39983,0.22578 -0.85795,0.0452 -2.05457,0.11288 -0.72249,0.0452 -1.44498,0.2032 -0.72249,0.13547 -1.28694,0.51929 -0.56444,0.36125 -0.92569,1.01601 -0.33867,0.65475 -0.33867,1.73849 0,1.55786 1.06116,2.34809 1.06116,0.76764 2.82223,0.76764 0.90311,0 1.67075,-0.24835 0.76765,-0.22578 1.35467,-0.63218 0.6096,-0.4064 0.99342,-0.92569 0.4064,-0.51929 0.58703,-1.08374 h 0.0452 v 1.51272 q 0,0.65475 0.36125,0.90311 0.38382,0.22578 0.88053,0.22578 h 0.67734 v -0.45156 q -0.22578,0.0226 -0.49672,0.0452 -0.24835,0 -0.47413,-0.0452 -0.22578,-0.0677 -0.36124,-0.22578 -0.13547,-0.15804 -0.13547,-0.49671 v -7.38294 q -0.0226,-0.94827 -0.33867,-1.58045 -0.31609,-0.63217 -0.83538,-1.016 -0.51929,-0.4064 -1.2192,-0.56444 -0.67733,-0.15805 -1.44498,-0.15805 -1.08373,0 -1.89653,0.29351 -0.79023,0.29352 -1.35467,0.81281 -0.54187,0.51929 -0.83538,1.24177 -0.29351,0.69992 -0.33867,1.51272 z m 7.81192,1.19662 v 2.14489 q 0,0.85796 -0.31609,1.67076 -0.29351,0.8128 -0.90311,1.44498 -0.58702,0.6096 -1.46756,0.99342 -0.88053,0.38382 -2.00942,0.38382 -0.94827,0 -1.60302,-0.22577 -0.63218,-0.24836 -1.03858,-0.6096 -0.4064,-0.38383 -0.58703,-0.85796 -0.15804,-0.49671 -0.15804,-0.99342 0,-0.92569 0.29351,-1.49014 0.29351,-0.58702 0.79022,-0.90311 0.49672,-0.33867 1.12889,-0.45156 0.65476,-0.13546 1.3321,-0.18062 0.67733,-0.0452 1.37724,-0.0677 0.72249,-0.0226 1.33209,-0.11289 0.6096,-0.0903 1.08374,-0.24836 0.47413,-0.18062 0.69991,-0.49671 z"
         style="font-weight:100;font-family:'Helvetica Neue';-inkscape-font-specification:'Helvetica Neue Thin';fill:#000000;stroke:none"
         id="path890" />
      <path
         d="m 332.96892,126.39826 h 1.96427 v 11.15344 h 0.45155 v -11.15344 h 2.50614 v -0.45155 h -2.50614 v -2.41583 q 0,-0.85795 0.31609,-1.24178 0.33867,-0.4064 1.4224,-0.4064 0.24836,0 0.49671,0.0226 0.24836,0.0226 0.56445,0.0677 v -0.45155 q -0.18062,-0.0226 -0.42898,-0.0452 -0.22578,-0.0451 -0.54187,-0.0451 -0.36124,0 -0.76764,0.0451 -0.4064,0.0452 -0.74507,0.24836 -0.33867,0.18062 -0.56444,0.56444 -0.2032,0.38383 -0.2032,1.08374 v 2.57387 h -1.96427 z"
         style="font-weight:100;font-family:'Helvetica Neue';-inkscape-font-specification:'Helvetica Neue Thin';fill:#000000;stroke:none"
         id="path892" />
      <path
         d="m 341.9157,126.39826 h 2.61903 v -0.45155 h -2.61903 v -3.65761 h -0.45155 v 3.65761 h -2.12232 v 0.45155 h 2.12232 v 8.98597 q 0,1.24178 0.54186,1.71591 0.56445,0.45156 1.35467,0.45156 0.51929,0 0.69991,-0.0226 0.2032,-0.0226 0.4064,-0.0452 v -0.45155 q -0.11289,0.0452 -0.38382,0.0677 -0.27093,0 -0.6096,0 -0.27093,0 -0.54187,-0.0226 -0.27093,-0.0452 -0.49671,-0.22578 -0.22578,-0.18062 -0.38382,-0.54186 -0.13547,-0.36125 -0.13547,-1.016 z"
         style="font-weight:100;font-family:'Helvetica Neue';-inkscape-font-specification:'Helvetica Neue Thin';fill:#000000;stroke:none"
         id="path894" />
      <path
         d="m 347.74674,131.83951 h 9.70846 q 0.0452,-1.19662 -0.24836,-2.30293 -0.27093,-1.10631 -0.90311,-1.96427 -0.6096,-0.85796 -1.60302,-1.37725 -0.97085,-0.51929 -2.32552,-0.51929 -0.97084,0 -1.89653,0.4064 -0.92569,0.4064 -1.6256,1.19663 -0.69992,0.76764 -1.12889,1.89653 -0.42898,1.12889 -0.42898,2.57387 0,1.28694 0.29351,2.41583 0.29351,1.10631 0.90311,1.94169 0.6096,0.8128 1.55787,1.26435 0.97085,0.45156 2.32551,0.42898 1.98685,0 3.34152,-1.10631 1.35467,-1.12889 1.60302,-3.16089 h -0.45155 q -0.29352,1.91911 -1.51272,2.88996 -1.19662,0.94826 -3.02542,0.94826 -1.24178,0 -2.09974,-0.42897 -0.85795,-0.42898 -1.39982,-1.17405 -0.54187,-0.74507 -0.8128,-1.73849 -0.24836,-1.016 -0.27094,-2.19005 z m 9.2569,-0.45155 h -9.2569 q 0.0677,-1.2192 0.45156,-2.19005 0.38382,-0.97084 0.99342,-1.64818 0.63218,-0.69991 1.44498,-1.06116 0.83538,-0.36124 1.78365,-0.36124 1.12889,0 1.98685,0.42898 0.85795,0.4064 1.4224,1.12889 0.58702,0.72249 0.88053,1.69333 0.29351,0.94827 0.29351,2.00943 z"
         style="font-weight:100;font-family:'Helvetica Neue';-inkscape-font-specification:'Helvetica Neue Thin';fill:#000000;stroke:none"
         id="path896" />
      <path
         d="m 378.28389,121.43115 v 7.76676 h -0.0452 q -0.4064,-1.58045 -1.60302,-2.55129 -1.19663,-0.97085 -3.04801,-0.97085 -1.19662,0 -2.12231,0.49672 -0.92569,0.49671 -1.55787,1.33209 -0.6096,0.83537 -0.94827,1.94169 -0.31609,1.10631 -0.31609,2.32551 0,1.30951 0.33867,2.41582 0.33867,1.10632 0.97085,1.91912 0.65475,0.79022 1.55787,1.24178 0.92569,0.45155 2.07715,0.45155 1.78365,0 2.98027,-0.97084 1.2192,-0.97085 1.67076,-2.52872 h 0.0452 v 3.25121 h 0.45155 v -16.12055 z m 0,10.34063 q 0,1.12889 -0.31609,2.14489 -0.31609,1.016 -0.92569,1.78365 -0.58703,0.76764 -1.46756,1.2192 -0.85796,0.45155 -1.98685,0.45155 -1.12889,0 -1.98684,-0.45155 -0.83538,-0.45156 -1.39983,-1.2192 -0.54186,-0.79023 -0.83538,-1.80623 -0.27093,-1.016 -0.27093,-2.12231 0,-1.016 0.24836,-2.00942 0.27093,-1.01601 0.8128,-1.80623 0.54186,-0.8128 1.39982,-1.30951 0.85796,-0.51929 2.032,-0.51929 2.12232,0 3.40925,1.46756 1.28694,1.44498 1.28694,4.17689 z"
         style="font-weight:100;font-family:'Helvetica Neue';-inkscape-font-specification:'Helvetica Neue Thin';fill:#000000;stroke:none"
         id="path898" />
      <path
         d="m 383.00863,131.83951 h 9.70846 q 0.0452,-1.19662 -0.24836,-2.30293 -0.27093,-1.10631 -0.90311,-1.96427 -0.6096,-0.85796 -1.60303,-1.37725 -0.97084,-0.51929 -2.32551,-0.51929 -0.97085,0 -1.89654,0.4064 -0.92568,0.4064 -1.6256,1.19663 -0.69991,0.76764 -1.12889,1.89653 -0.42897,1.12889 -0.42897,2.57387 0,1.28694 0.29351,2.41583 0.29351,1.10631 0.90311,1.94169 0.6096,0.8128 1.55787,1.26435 0.97084,0.45156 2.32551,0.42898 1.98685,0 3.34151,-1.10631 1.35467,-1.12889 1.60303,-3.16089 h -0.45156 q -0.29351,1.91911 -1.51271,2.88996 -1.19662,0.94826 -3.02543,0.94826 -1.24177,0 -2.09973,-0.42897 -0.85796,-0.42898 -1.39982,-1.17405 -0.54187,-0.74507 -0.81281,-1.73849 -0.24835,-1.016 -0.27093,-2.19005 z m 9.2569,-0.45155 h -9.2569 q 0.0677,-1.2192 0.45156,-2.19005 0.38382,-0.97084 0.99342,-1.64818 0.63218,-0.69991 1.44498,-1.06116 0.83538,-0.36124 1.78365,-0.36124 1.12889,0 1.98684,0.42898 0.85796,0.4064 1.4224,1.12889 0.58703,0.72249 0.88054,1.69333 0.29351,0.94827 0.29351,2.00943 z"
         style="font-weight:100;font-family:'Helvetica Neue';-inkscape-font-specification:'Helvetica Neue Thin';fill:#000000;stroke:none"
         id="path900" />
      <path
         d="m 403.9442,129.37853 h 0.45155 q 0,-1.94169 -1.12889,-2.82222 -1.12889,-0.88054 -3.07058,-0.88054 -1.08373,0 -1.8288,0.27094 -0.74507,0.27093 -1.2192,0.69991 -0.47413,0.42898 -0.67733,0.94827 -0.2032,0.51929 -0.2032,0.99342 0,0.94827 0.33866,1.51271 0.33867,0.56445 1.06116,0.88054 0.49671,0.22577 1.12889,0.4064 0.63218,0.18062 1.46756,0.38382 0.74506,0.18062 1.46755,0.36124 0.72249,0.18063 1.26436,0.49672 0.56444,0.29351 0.90311,0.76764 0.36125,0.47414 0.36125,1.24178 0,0.74507 -0.36125,1.26436 -0.33867,0.51929 -0.88053,0.85795 -0.54187,0.31609 -1.2192,0.47414 -0.65476,0.13546 -1.28694,0.13546 -2.05458,0 -3.16089,-0.90311 -1.08373,-0.92569 -1.08373,-2.88996 h -0.45156 q 0,2.19005 1.17404,3.20605 1.19663,1.016 3.52214,1.016 0.74507,0 1.49014,-0.18062 0.76764,-0.15804 1.35466,-0.54187 0.60961,-0.38382 0.97085,-0.99342 0.38382,-0.6096 0.38382,-1.49014 0,-0.83537 -0.33866,-1.35466 -0.31609,-0.51929 -0.85796,-0.85796 -0.51929,-0.33867 -1.19662,-0.51929 -0.65476,-0.2032 -1.33209,-0.38382 -0.94827,-0.24836 -1.67076,-0.42898 -0.69991,-0.18062 -1.30951,-0.42898 -0.58703,-0.24835 -0.94827,-0.69991 -0.33867,-0.47413 -0.33867,-1.33209 0,-0.15804 0.0903,-0.56445 0.0903,-0.4064 0.42898,-0.8128 0.33867,-0.42897 1.03858,-0.74506 0.69991,-0.33867 1.91911,-0.33867 0.83538,0 1.51271,0.18062 0.69992,0.18062 1.19663,0.58702 0.49671,0.38383 0.76764,0.99343 0.27094,0.6096 0.27094,1.49013 z"
         style="font-weight:100;font-family:'Helvetica Neue';-inkscape-font-specification:'Helvetica Neue Thin';fill:#000000;stroke:none"
         id="path902" />
      <path
         d="m 417.09647,128.92698 v -7.04428 h 6.47983 q 0.85795,0 1.60302,0.22578 0.74507,0.2032 1.28694,0.65476 0.56444,0.42898 0.88053,1.10631 0.31609,0.65476 0.31609,1.58045 0,0.85795 -0.33867,1.51271 -0.33867,0.65475 -0.90311,1.10631 -0.56445,0.42898 -1.30951,0.65476 -0.72249,0.2032 -1.53529,0.2032 z m -0.45156,-7.49583 v 16.12055 h 6.66045 q 1.15147,0 2.12232,-0.27094 0.99342,-0.29351 1.69333,-0.83538 0.69991,-0.54186 1.08374,-1.35466 0.4064,-0.83538 0.4064,-1.91912 0,-0.92569 -0.31609,-1.64818 -0.31609,-0.74506 -0.85796,-1.24178 -0.51929,-0.51928 -1.24178,-0.79022 -0.69991,-0.29351 -1.49013,-0.31609 v -0.0452 q 0.74506,-0.0452 1.35467,-0.33867 0.63217,-0.31609 1.08373,-0.8128 0.45156,-0.49671 0.69991,-1.15147 0.27093,-0.65475 0.27093,-1.37724 0,-1.01601 -0.36124,-1.76107 -0.33867,-0.74507 -0.97085,-1.24178 -0.6096,-0.51929 -1.44497,-0.76765 -0.81281,-0.24835 -1.76107,-0.24835 z m 0.45156,15.66899 v -7.72161 h 6.47983 q 0.85795,0 1.67075,0.2032 0.83538,0.2032 1.46756,0.65476 0.65476,0.45156 1.03858,1.17404 0.4064,0.72249 0.4064,1.78365 0,0.99342 -0.36124,1.73849 -0.36125,0.72249 -0.99343,1.2192 -0.6096,0.47414 -1.46755,0.72249 -0.83538,0.22578 -1.82881,0.22578 z"
         style="font-weight:100;font-family:'Helvetica Neue';-inkscape-font-specification:'Helvetica Neue Thin';fill:#000000;stroke:none"
         id="path904" />
      <path
         d="m 432.25213,131.83951 h 9.70846 q 0.0451,-1.19662 -0.24836,-2.30293 -0.27093,-1.10631 -0.90311,-1.96427 -0.6096,-0.85796 -1.60303,-1.37725 -0.97084,-0.51929 -2.32551,-0.51929 -0.97085,0 -1.89654,0.4064 -0.92569,0.4064 -1.6256,1.19663 -0.69991,0.76764 -1.12889,1.89653 -0.42898,1.12889 -0.42898,2.57387 0,1.28694 0.29352,2.41583 0.29351,1.10631 0.90311,1.94169 0.6096,0.8128 1.55787,1.26435 0.97084,0.45156 2.32551,0.42898 1.98685,0 3.34151,-1.10631 1.35467,-1.12889 1.60303,-3.16089 h -0.45156 q -0.29351,1.91911 -1.51271,2.88996 -1.19662,0.94826 -3.02543,0.94826 -1.24177,0 -2.09973,-0.42897 -0.85796,-0.42898 -1.39982,-1.17405 -0.54187,-0.74507 -0.81281,-1.73849 -0.24835,-1.016 -0.27093,-2.19005 z m 9.2569,-0.45155 h -9.2569 q 0.0677,-1.2192 0.45156,-2.19005 0.38382,-0.97084 0.99342,-1.64818 0.63218,-0.69991 1.44498,-1.06116 0.83538,-0.36124 1.78365,-0.36124 1.12889,0 1.98684,0.42898 0.85796,0.4064 1.4224,1.12889 0.58703,0.72249 0.88054,1.69333 0.29351,0.94827 0.29351,2.00943 z"
         style="font-weight:100;font-family:'Helvetica Neue';-inkscape-font-specification:'Helvetica Neue Thin';fill:#000000;stroke:none"
         id="path906" />
      <path
         d="m 453.34576,125.94671 -4.15432,11.15343 h -0.0451 l -4.49299,-11.15343 h -0.51929 l 4.76392,11.60499 h 0.56445 l 4.38009,-11.60499 z"
         style="font-weight:100;font-family:'Helvetica Neue';-inkscape-font-specification:'Helvetica Neue Thin';fill:#000000;stroke:none"
         id="path908" />
      <path
         d="m 462.83443,124.72751 h 0.45155 v -1.82881 h -0.45155 z m -3.52214,0 h 0.45156 v -1.82881 h -0.45156 z m -2.79965,7.02169 q 0,-1.08373 0.29352,-2.09973 0.31608,-1.016 0.92568,-1.78365 0.60961,-0.79022 1.49014,-1.26436 0.90311,-0.47413 2.07716,-0.47413 1.15147,0 2.032,0.47413 0.90311,0.47414 1.51271,1.26436 0.6096,0.76765 0.90311,1.78365 0.31609,1.016 0.31609,2.09973 0,1.10631 -0.31609,2.12232 -0.29351,1.016 -0.90311,1.80622 -0.6096,0.76764 -1.51271,1.24178 -0.88053,0.45155 -2.032,0.45155 -1.17405,0 -2.07716,-0.45155 -0.88053,-0.47414 -1.49014,-1.24178 -0.6096,-0.79022 -0.92568,-1.80622 -0.29352,-1.01601 -0.29352,-2.12232 z m -0.45155,0 q 0,1.19663 0.33866,2.30294 0.33867,1.08373 0.99343,1.91911 0.67733,0.83538 1.64818,1.33209 0.97084,0.49671 2.2352,0.49671 1.28693,0 2.25778,-0.49671 0.97085,-0.49671 1.6256,-1.33209 0.67734,-0.83538 1.016,-1.91911 0.33867,-1.10631 0.33867,-2.30294 0,-1.19662 -0.33867,-2.28036 -0.33866,-1.10631 -1.016,-1.94169 -0.65475,-0.83538 -1.6256,-1.33209 -0.97085,-0.51929 -2.2352,-0.51929 -1.28694,0 -2.25778,0.51929 -0.97085,0.49671 -1.64818,1.33209 -0.65476,0.83538 -0.99343,1.94169 -0.33866,1.08374 -0.33866,2.28036 z"
         style="font-weight:100;font-family:'Helvetica Neue';-inkscape-font-specification:'Helvetica Neue Thin';fill:#000000;stroke:none"
         id="path910" />
      <path
         d="m 470.24591,121.43115 v 16.12055 h 0.45156 v -16.12055 z"
         style="font-weight:100;font-family:'Helvetica Neue';-inkscape-font-specification:'Helvetica Neue Thin';fill:#000000;stroke:none"
         id="path912" />
      <path
         d="m 475.48995,133.1716 3.00285,-2.48355 5.44125,6.86365 h 0.6096 l -5.71218,-7.17974 5.32836,-4.42525 h -0.65476 l -8.01512,6.66045 v -11.17601 h -0.45156 v 16.12055 h 0.45156 z"
         style="font-weight:100;font-family:'Helvetica Neue';-inkscape-font-specification:'Helvetica Neue Thin';fill:#000000;stroke:none"
         id="path914" />
      <path
         d="m 486.69451,131.83951 h 9.70846 q 0.0452,-1.19662 -0.24836,-2.30293 -0.27093,-1.10631 -0.90311,-1.96427 -0.6096,-0.85796 -1.60302,-1.37725 -0.97085,-0.51929 -2.32552,-0.51929 -0.97084,0 -1.89653,0.4064 -0.92569,0.4064 -1.6256,1.19663 -0.69992,0.76764 -1.12889,1.89653 -0.42898,1.12889 -0.42898,2.57387 0,1.28694 0.29351,2.41583 0.29351,1.10631 0.90311,1.94169 0.6096,0.8128 1.55787,1.26435 0.97084,0.45156 2.32551,0.42898 1.98685,0 3.34152,-1.10631 1.35467,-1.12889 1.60302,-3.16089 h -0.45155 q -0.29352,1.91911 -1.51272,2.88996 -1.19662,0.94826 -3.02542,0.94826 -1.24178,0 -2.09974,-0.42897 -0.85795,-0.42898 -1.39982,-1.17405 -0.54187,-0.74507 -0.8128,-1.73849 -0.24836,-1.016 -0.27094,-2.19005 z m 9.2569,-0.45155 h -9.2569 q 0.0677,-1.2192 0.45156,-2.19005 0.38382,-0.97084 0.99342,-1.64818 0.63218,-0.69991 1.44498,-1.06116 0.83538,-0.36124 1.78365,-0.36124 1.12889,0 1.98684,0.42898 0.85796,0.4064 1.42241,1.12889 0.58702,0.72249 0.88053,1.69333 0.29351,0.94827 0.29351,2.00943 z"
         style="font-weight:100;font-family:'Helvetica Neue';-inkscape-font-specification:'Helvetica Neue Thin';fill:#000000;stroke:none"
         id="path916" />
      <path
         d="m 500.51806,137.5517 v -6.57014 q 0,-0.94827 0.27093,-1.85138 0.27093,-0.90311 0.83538,-1.58045 0.56444,-0.69991 1.4224,-1.08373 0.88054,-0.4064 2.07716,-0.33867 v -0.45156 q -1.03858,-0.0226 -1.8288,0.22578 -0.76765,0.24836 -1.33209,0.67734 -0.56445,0.42897 -0.90312,1.016 -0.33866,0.56444 -0.49671,1.2192 h -0.0452 v -2.86738 h -0.45156 v 11.60499 z"
         style="font-weight:100;font-family:'Helvetica Neue';-inkscape-font-specification:'Helvetica Neue Thin';fill:#000000;stroke:none"
         id="path918" />
      <path
         d="m 516.57686,137.5517 v -11.60499 h -0.45156 v 6.57014 q 0,0.97084 -0.27093,1.85138 -0.27093,0.88053 -0.8128,1.55787 -0.51929,0.65475 -1.30951,1.06115 -0.79023,0.38382 -1.8288,0.38382 -0.74507,0 -1.42241,-0.2032 -0.65475,-0.22577 -1.17404,-0.67733 -0.49671,-0.47413 -0.79022,-1.17405 -0.29352,-0.72249 -0.29352,-1.73849 v -7.63129 h -0.45155 v 7.69903 q 0,1.016 0.29351,1.80622 0.31609,0.76765 0.85796,1.30951 0.56444,0.51929 1.30951,0.79023 0.76764,0.24835 1.67076,0.24835 1.71591,0 2.77707,-0.88053 1.08373,-0.88054 1.39982,-2.2352 h 0.0452 v 2.86738 z"
         style="font-weight:100;font-family:'Helvetica Neue';-inkscape-font-specification:'Helvetica Neue Thin';fill:#000000;stroke:none"
         id="path920" />
      <path
         d="m 520.91776,125.94671 v 11.60499 h 0.45155 v -6.57014 q 0,-0.97085 0.27094,-1.85138 0.27093,-0.88054 0.79022,-1.53529 0.54187,-0.67734 1.33209,-1.06116 0.79022,-0.4064 1.8288,-0.4064 0.74507,0 1.39983,0.22578 0.67733,0.2032 1.17404,0.67733 0.51929,0.45156 0.8128,1.17405 0.29351,0.69991 0.29351,1.71591 v 7.6313 h 0.45156 v -7.69903 q 0,-1.016 -0.31609,-1.78365 -0.29351,-0.79022 -0.85795,-1.30951 -0.54187,-0.54187 -1.30952,-0.8128 -0.74506,-0.27094 -1.64818,-0.27094 -0.85795,0 -1.55786,0.24836 -0.69992,0.22578 -1.24178,0.65476 -0.51929,0.42897 -0.88054,0.99342 -0.33867,0.56444 -0.49671,1.24178 h -0.0452 v -2.86738 z"
         style="font-weight:100;font-family:'Helvetica Neue';-inkscape-font-specification:'Helvetica Neue Thin';fill:#000000;stroke:none"
         id="path922" />
      <path
         d="m 542.89192,133.66832 v 3.49955 q 0,2.16747 -1.15147,3.1609 -1.12889,1.016 -3.2512,1.016 -0.76765,0 -1.49014,-0.18063 -0.69991,-0.18062 -1.24178,-0.56444 -0.54186,-0.38382 -0.88053,-0.99342 -0.31609,-0.6096 -0.33867,-1.46756 h -0.45155 q 0.0226,0.99342 0.38382,1.67076 0.36124,0.69991 0.97084,1.12889 0.60961,0.45155 1.39983,0.65475 0.79022,0.2032 1.67076,0.2032 2.30293,0 3.56729,-1.12889 1.26435,-1.10631 1.26435,-3.49956 v -11.22116 h -0.45155 v 3.09316 h -0.0452 q -0.18062,-0.72249 -0.58702,-1.33209 -0.38382,-0.6096 -0.97084,-1.06116 -0.56445,-0.45156 -1.28694,-0.69991 -0.72249,-0.27094 -1.55787,-0.27094 -1.2192,0 -2.16747,0.45156 -0.92569,0.45156 -1.55786,1.24178 -0.63218,0.76764 -0.94827,1.80622 -0.31609,1.016 -0.31609,2.19005 0,1.10631 0.29351,2.12231 0.31609,1.016 0.90311,1.78365 0.6096,0.74507 1.51271,1.19662 0.90312,0.45156 2.12232,0.45156 0.74507,0 1.46755,-0.2032 0.74507,-0.22578 1.35467,-0.63218 0.63218,-0.42898 1.08374,-1.03858 0.47413,-0.6096 0.65475,-1.37724 z m -0.0226,-2.30294 q 0,1.03858 -0.31609,1.98685 -0.29351,0.92569 -0.88053,1.6256 -0.56445,0.67733 -1.4224,1.08373 -0.85796,0.4064 -1.98685,0.4064 -1.06116,0 -1.87396,-0.38382 -0.8128,-0.4064 -1.37724,-1.08373 -0.54187,-0.69992 -0.83538,-1.62561 -0.27094,-0.92569 -0.27094,-2.00942 0,-1.06116 0.27094,-2.00942 0.29351,-0.94827 0.85795,-1.67076 0.58703,-0.72249 1.42241,-1.12889 0.85795,-0.42898 1.98684,-0.42898 1.08374,0 1.91912,0.45156 0.83537,0.42897 1.37724,1.17404 0.56445,0.72249 0.83538,1.67076 0.29351,0.94827 0.29351,1.94169 z"
         style="font-weight:100;font-family:'Helvetica Neue';-inkscape-font-specification:'Helvetica Neue Thin';fill:#000000;stroke:none"
         id="path924" />
      <path
         d="m 555.20279,129.37853 h 0.45155 q 0,-1.94169 -1.12889,-2.82222 -1.12889,-0.88054 -3.07058,-0.88054 -1.08373,0 -1.8288,0.27094 -0.74507,0.27093 -1.2192,0.69991 -0.47413,0.42898 -0.67733,0.94827 -0.2032,0.51929 -0.2032,0.99342 0,0.94827 0.33866,1.51271 0.33867,0.56445 1.06116,0.88054 0.49671,0.22577 1.12889,0.4064 0.63218,0.18062 1.46756,0.38382 0.74506,0.18062 1.46755,0.36124 0.72249,0.18063 1.26436,0.49672 0.56445,0.29351 0.90311,0.76764 0.36125,0.47414 0.36125,1.24178 0,0.74507 -0.36125,1.26436 -0.33866,0.51929 -0.88053,0.85795 -0.54187,0.31609 -1.2192,0.47414 -0.65476,0.13546 -1.28694,0.13546 -2.05458,0 -3.16089,-0.90311 -1.08373,-0.92569 -1.08373,-2.88996 h -0.45156 q 0,2.19005 1.17405,3.20605 1.19662,1.016 3.52213,1.016 0.74507,0 1.49014,-0.18062 0.76764,-0.15804 1.35467,-0.54187 0.6096,-0.38382 0.97084,-0.99342 0.38382,-0.6096 0.38382,-1.49014 0,-0.83537 -0.33866,-1.35466 -0.31609,-0.51929 -0.85796,-0.85796 -0.51929,-0.33867 -1.19662,-0.51929 -0.65476,-0.2032 -1.33209,-0.38382 -0.94827,-0.24836 -1.67076,-0.42898 -0.69991,-0.18062 -1.30951,-0.42898 -0.58703,-0.24835 -0.94827,-0.69991 -0.33867,-0.47413 -0.33867,-1.33209 0,-0.15804 0.0903,-0.56445 0.0903,-0.4064 0.42898,-0.8128 0.33867,-0.42897 1.03858,-0.74506 0.69991,-0.33867 1.91911,-0.33867 0.83538,0 1.51272,0.18062 0.69991,0.18062 1.19662,0.58702 0.49671,0.38383 0.76764,0.99343 0.27094,0.6096 0.27094,1.49013 z"
         style="font-weight:100;font-family:'Helvetica Neue';-inkscape-font-specification:'Helvetica Neue Thin';fill:#000000;stroke:none"
         id="path926" />
      <path
         d="m 567.51367,129.37853 h 0.45156 q 0,-1.94169 -1.12889,-2.82222 -1.12889,-0.88054 -3.07058,-0.88054 -1.08374,0 -1.82881,0.27094 -0.74506,0.27093 -1.2192,0.69991 -0.47413,0.42898 -0.67733,0.94827 -0.2032,0.51929 -0.2032,0.99342 0,0.94827 0.33867,1.51271 0.33866,0.56445 1.06115,0.88054 0.49671,0.22577 1.12889,0.4064 0.63218,0.18062 1.46756,0.38382 0.74507,0.18062 1.46756,0.36124 0.72249,0.18063 1.26435,0.49672 0.56445,0.29351 0.90311,0.76764 0.36125,0.47414 0.36125,1.24178 0,0.74507 -0.36125,1.26436 -0.33866,0.51929 -0.88053,0.85795 -0.54187,0.31609 -1.2192,0.47414 -0.65476,0.13546 -1.28694,0.13546 -2.05458,0 -3.16089,-0.90311 -1.08373,-0.92569 -1.08373,-2.88996 h -0.45156 q 0,2.19005 1.17405,3.20605 1.19662,1.016 3.52213,1.016 0.74507,0 1.49014,-0.18062 0.76764,-0.15804 1.35467,-0.54187 0.6096,-0.38382 0.97084,-0.99342 0.38383,-0.6096 0.38383,-1.49014 0,-0.83537 -0.33867,-1.35466 -0.31609,-0.51929 -0.85796,-0.85796 -0.51929,-0.33867 -1.19662,-0.51929 -0.65476,-0.2032 -1.33209,-0.38382 -0.94827,-0.24836 -1.67076,-0.42898 -0.69991,-0.18062 -1.30951,-0.42898 -0.58702,-0.24835 -0.94827,-0.69991 -0.33867,-0.47413 -0.33867,-1.33209 0,-0.15804 0.0903,-0.56445 0.0903,-0.4064 0.42897,-0.8128 0.33867,-0.42897 1.03858,-0.74506 0.69991,-0.33867 1.91912,-0.33867 0.83537,0 1.51271,0.18062 0.69991,0.18062 1.19662,0.58702 0.49671,0.38383 0.76765,0.99343 0.27093,0.6096 0.27093,1.49013 z"
         style="font-weight:100;font-family:'Helvetica Neue';-inkscape-font-specification:'Helvetica Neue Thin';fill:#000000;stroke:none"
         id="path928" />
      <path
         d="m 581.60823,133.60058 h -0.45156 q -0.0677,0.88054 -0.42897,1.58045 -0.36125,0.67733 -0.94827,1.17404 -0.56445,0.49671 -1.30951,0.76765 -0.74507,0.24835 -1.60303,0.24835 -1.15147,0 -2.032,-0.42897 -0.88053,-0.45156 -1.46756,-1.19663 -0.58702,-0.74506 -0.90311,-1.71591 -0.29351,-0.97085 -0.29351,-2.032 0,-1.016 0.24835,-2.05458 0.27094,-1.06116 0.83538,-1.89654 0.58703,-0.85795 1.53529,-1.37724 0.97085,-0.54187 2.3481,-0.54187 0.72248,0 1.37724,0.2032 0.65476,0.2032 1.17405,0.63218 0.51929,0.4064 0.88053,1.03858 0.36125,0.6096 0.49671,1.46755 h 0.45156 q -0.11289,-0.92569 -0.51929,-1.6256 -0.38382,-0.72249 -0.97085,-1.19662 -0.58702,-0.47413 -1.33209,-0.72249 -0.74506,-0.24836 -1.55786,-0.24836 -1.37725,0 -2.41583,0.51929 -1.016,0.51929 -1.69333,1.39983 -0.65476,0.85795 -0.99343,2.00942 -0.31609,1.12889 -0.31609,2.39325 0,1.19662 0.33867,2.25778 0.33867,1.03858 0.99342,1.8288 0.65476,0.79022 1.60303,1.26436 0.97084,0.45155 2.21262,0.45155 0.99342,0 1.80623,-0.29351 0.83537,-0.29351 1.44498,-0.83538 0.63217,-0.54186 1.016,-1.30951 0.38382,-0.79022 0.47413,-1.76107 z"
         style="font-weight:100;font-family:'Helvetica Neue';-inkscape-font-specification:'Helvetica Neue Thin';fill:#000000;stroke:none"
         id="path930" />
      <path
         d="m 585.40723,121.43115 v 16.12055 h 0.45156 v -6.57014 q 0,-0.97085 0.27093,-1.85138 0.27093,-0.88054 0.79022,-1.53529 0.54187,-0.67734 1.33209,-1.06116 0.79023,-0.4064 1.8288,-0.4064 0.74507,0 1.39983,0.22578 0.67733,0.2032 1.17404,0.67733 0.51929,0.45156 0.8128,1.17405 0.29352,0.69991 0.29352,1.71591 v 7.6313 h 0.45155 v -7.69903 q 0,-1.016 -0.31609,-1.78365 -0.29351,-0.79022 -0.85795,-1.30951 -0.54187,-0.54187 -1.30952,-0.8128 -0.74506,-0.27094 -1.64818,-0.27094 -0.85795,0 -1.55786,0.24836 -0.69992,0.22578 -1.24178,0.65476 -0.51929,0.42897 -0.88054,0.99342 -0.33866,0.56444 -0.49671,1.24178 h -0.0452 v -7.38294 z"
         style="font-weight:100;font-family:'Helvetica Neue';-inkscape-font-specification:'Helvetica Neue Thin';fill:#000000;stroke:none"
         id="path932" />
      <path
         d="m 607.35881,137.5517 v -11.60499 h -0.45155 v 6.57014 q 0,0.97084 -0.27094,1.85138 -0.27093,0.88053 -0.8128,1.55787 -0.51929,0.65475 -1.30951,1.06115 -0.79022,0.38382 -1.8288,0.38382 -0.74507,0 -1.4224,-0.2032 -0.65476,-0.22577 -1.17405,-0.67733 -0.49671,-0.47413 -0.79022,-1.17405 -0.29351,-0.72249 -0.29351,-1.73849 v -7.63129 h -0.45156 v 7.69903 q 0,1.016 0.29351,1.80622 0.31609,0.76765 0.85796,1.30951 0.56444,0.51929 1.30951,0.79023 0.76765,0.24835 1.67076,0.24835 1.71591,0 2.77707,-0.88053 1.08373,-0.88054 1.39982,-2.2352 h 0.0452 v 2.86738 z"
         style="font-weight:100;font-family:'Helvetica Neue';-inkscape-font-specification:'Helvetica Neue Thin';fill:#000000;stroke:none"
         id="path934" />
      <path
         d="m 612.94149,126.39826 h 2.61902 v -0.45155 h -2.61902 v -3.65761 h -0.45156 v 3.65761 h -2.12231 v 0.45155 h 2.12231 v 8.98597 q 0,1.24178 0.54187,1.71591 0.56445,0.45156 1.35467,0.45156 0.51929,0 0.69991,-0.0226 0.2032,-0.0226 0.4064,-0.0452 v -0.45155 q -0.11289,0.0452 -0.38382,0.0677 -0.27094,0 -0.6096,0 -0.27094,0 -0.54187,-0.0226 -0.27093,-0.0452 -0.49671,-0.22578 -0.22578,-0.18062 -0.38382,-0.54186 -0.13547,-0.36125 -0.13547,-1.016 z"
         style="font-weight:100;font-family:'Helvetica Neue';-inkscape-font-specification:'Helvetica Neue Thin';fill:#000000;stroke:none"
         id="path936" />
      <path
         d="m 626.83282,137.10014 h -8.48925 l 8.12801,-10.58899 v -0.56444 h -7.99254 v 0.45155 h 7.5184 l -8.128,10.58899 v 0.56445 h 8.96338 z"
         style="font-weight:100;font-family:'Helvetica Neue';-inkscape-font-specification:'Helvetica Neue Thin';fill:#000000;stroke:none"
         id="path938" />
      <path
         d="m 629.81909,131.83951 h 9.70845 q 0.0452,-1.19662 -0.24836,-2.30293 -0.27093,-1.10631 -0.90311,-1.96427 -0.6096,-0.85796 -1.60302,-1.37725 -0.97085,-0.51929 -2.32551,-0.51929 -0.97085,0 -1.89654,0.4064 -0.92569,0.4064 -1.6256,1.19663 -0.69991,0.76764 -1.12889,1.89653 -0.42898,1.12889 -0.42898,2.57387 0,1.28694 0.29351,2.41583 0.29351,1.10631 0.90311,1.94169 0.6096,0.8128 1.55787,1.26435 0.97085,0.45156 2.32552,0.42898 1.98684,0 3.34151,-1.10631 1.35467,-1.12889 1.60302,-3.16089 h -0.45155 q -0.29351,1.91911 -1.51271,2.88996 -1.19663,0.94826 -3.02543,0.94826 -1.24178,0 -2.09974,-0.42897 -0.85795,-0.42898 -1.39982,-1.17405 -0.54187,-0.74507 -0.8128,-1.73849 -0.24836,-1.016 -0.27093,-2.19005 z m 9.25689,-0.45155 h -9.25689 q 0.0677,-1.2192 0.45155,-2.19005 0.38382,-0.97084 0.99343,-1.64818 0.63217,-0.69991 1.44497,-1.06116 0.83538,-0.36124 1.78365,-0.36124 1.12889,0 1.98685,0.42898 0.85795,0.4064 1.4224,1.12889 0.58702,0.72249 0.88053,1.69333 0.29351,0.94827 0.29351,2.00943 z"
         style="font-weight:100;font-family:'Helvetica Neue';-inkscape-font-specification:'Helvetica Neue Thin';fill:#000000;stroke:none"
         id="path940" />
      <path
         d="m 650.75467,129.37853 h 0.45155 q 0,-1.94169 -1.12889,-2.82222 -1.12889,-0.88054 -3.07058,-0.88054 -1.08373,0 -1.8288,0.27094 -0.74507,0.27093 -1.2192,0.69991 -0.47413,0.42898 -0.67733,0.94827 -0.2032,0.51929 -0.2032,0.99342 0,0.94827 0.33866,1.51271 0.33867,0.56445 1.06116,0.88054 0.49671,0.22577 1.12889,0.4064 0.63218,0.18062 1.46756,0.38382 0.74506,0.18062 1.46755,0.36124 0.72249,0.18063 1.26436,0.49672 0.56445,0.29351 0.90311,0.76764 0.36125,0.47414 0.36125,1.24178 0,0.74507 -0.36125,1.26436 -0.33866,0.51929 -0.88053,0.85795 -0.54187,0.31609 -1.2192,0.47414 -0.65476,0.13546 -1.28694,0.13546 -2.05458,0 -3.16089,-0.90311 -1.08373,-0.92569 -1.08373,-2.88996 h -0.45156 q 0,2.19005 1.17405,3.20605 1.19662,1.016 3.52213,1.016 0.74507,0 1.49014,-0.18062 0.76764,-0.15804 1.35467,-0.54187 0.6096,-0.38382 0.97084,-0.99342 0.38382,-0.6096 0.38382,-1.49014 0,-0.83537 -0.33866,-1.35466 -0.31609,-0.51929 -0.85796,-0.85796 -0.51929,-0.33867 -1.19662,-0.51929 -0.65476,-0.2032 -1.33209,-0.38382 -0.94827,-0.24836 -1.67076,-0.42898 -0.69991,-0.18062 -1.30951,-0.42898 -0.58703,-0.24835 -0.94827,-0.69991 -0.33867,-0.47413 -0.33867,-1.33209 0,-0.15804 0.0903,-0.56445 0.0903,-0.4064 0.42898,-0.8128 0.33867,-0.42897 1.03858,-0.74506 0.69991,-0.33867 1.91911,-0.33867 0.83538,0 1.51272,0.18062 0.69991,0.18062 1.19662,0.58702 0.49671,0.38383 0.76764,0.99343 0.27094,0.6096 0.27094,1.49013 z"
         style="font-weight:100;font-family:'Helvetica Neue';-inkscape-font-specification:'Helvetica Neue Thin';fill:#000000;stroke:none"
         id="path942" />
    </g>
  </g>
</svg>
